# xmcd
#
# Track frame offsets:
#	150
#	17088
#	36931
#	50824
#	68030
#	86431
#	103379
#	118142
#	135895
#	153131
#	171068
#
# Disc length: 2527 seconds
#
# Revision: 0
# Processed by: cddbd v1.5.2PL0 Copyright (c) Steve Scherf et al.
# Submitted via: EasyCDDAExtractor 4.6.9.1
#
DISCID=8c09dd0b
DTITLE=Martina McBride - Shine
DYEAR=2009
DGENRE=Country
TTITLE0=Wrong Baby Wrong Baby Wrong
TTITLE1=I Just Call You Mine
TTITLE2=Sunny Side Up
TTITLE3=Walk Away
TTITLE4=I'm Trying
TTITLE5=What Do I Have To Do
TTITLE6=Don't Cost A Dime
TTITLE7=Ride
TTITLE8=You're Not Leaving Me
TTITLE9=Wild Rebel Rose
TTITLE10=Lies
EXTD=
EXTT0=
EXTT1=
EXTT2=
EXTT3=
EXTT4=
EXTT5=
EXTT6=
EXTT7=
EXTT8=
EXTT9=
EXTT10=
PLAYORDER=
